<svg xmlns="http://www.w3.org/2000/svg" viewBox="0 0 1354 552" width="1354" height="552"><rect width="1354" height="552" rx="28" fill="#F8F6FC"/><rect x="70.0" y="90.0" width="608.0" height="422.41747054447" rx="25.6" fill="#DDD4F7" stroke="#AB9BE6" stroke-width="2"/><circle cx="95.6" cy="486.4225492801949" r="10.56" fill="#F6F4FB" stroke="#AB9BE6" stroke-width="1.5"/><circle cx="652.4" cy="486.4225492801949" r="10.56" fill="#F6F4FB" stroke="#AB9BE6" stroke-width="1.5"/><circle cx="95.6" cy="115.99492126427508" r="10.56" fill="#F6F4FB" stroke="#AB9BE6" stroke-width="1.5"/><circle cx="652.4" cy="115.99492126427508" r="10.56" fill="#F6F4FB" stroke="#AB9BE6" stroke-width="1.5"/><circle cx="374.0" cy="486.4225492801949" r="10.56" fill="#F6F4FB" stroke="#AB9BE6" stroke-width="1.5"/><circle cx="374.0" cy="115.99492126427508" r="10.56" fill="#F6F4FB" stroke="#AB9BE6" stroke-width="1.5"/><circle cx="204.4" cy="403.61747054447" r="39.2" fill="#8D9AB4" stroke="#fff" stroke-width="3"/><text x="204.4" y="407.61747054447" font-size="12" font-weight="600" fill="#fff" text-anchor="middle" font-family="ui-sans-serif, system-ui, -apple-system, 'Segoe UI', Roboto, sans-serif">black</text><circle cx="319.6" cy="403.61747054447" r="39.2" fill="#EA857E" stroke="#fff" stroke-width="3"/><text x="319.6" y="407.61747054447" font-size="12" font-weight="600" fill="#fff" text-anchor="middle" font-family="ui-sans-serif, system-ui, -apple-system, 'Segoe UI', Roboto, sans-serif">red</text><circle cx="434.8" cy="403.61747054447" r="39.2" fill="#93D391" stroke="#fff" stroke-width="3"/><text x="434.8" y="407.61747054447" font-size="12" font-weight="600" fill="#fff" text-anchor="middle" font-family="ui-sans-serif, system-ui, -apple-system, 'Segoe UI', Roboto, sans-serif">green</text><circle cx="204.4" cy="314.01747054447" r="8.16" fill="#8D9AB4" stroke="#fff" stroke-width="2"/><circle cx="319.6" cy="314.01747054447" r="8.16" fill="#EA857E" stroke="#fff" stroke-width="2"/><circle cx="434.8" cy="314.01747054447" r="8.16" fill="#93D391" stroke="#fff" stroke-width="2"/><rect x="203.6" y="151.61747054446997" width="232.0" height="81.60000000000001" rx="4" fill="#3E3B54"/><text x="319.6" y="197.41747054446995" font-size="14" fill="#C6EBC5" text-anchor="middle" font-family="ui-monospace, Menlo, Consolas, monospace" font-weight="700">10€: S/R/G</text><circle cx="199.6" cy="242.01747054446997" r="4.0" fill="none" stroke="#AB9BE6" stroke-width="1.5" stroke-dasharray="3 2"/><circle cx="199.6" cy="142.81747054446996" r="4.0" fill="none" stroke="#AB9BE6" stroke-width="1.5" stroke-dasharray="3 2"/><circle cx="439.6" cy="242.01747054446997" r="4.0" fill="none" stroke="#AB9BE6" stroke-width="1.5" stroke-dasharray="3 2"/><circle cx="439.6" cy="142.81747054446996" r="4.0" fill="none" stroke="#AB9BE6" stroke-width="1.5" stroke-dasharray="3 2"/><rect x="508.40000000000003" y="221.21747054446996" width="134.4" height="198.4" rx="4" fill="none" stroke="#8DB9E9" stroke-width="1.5" stroke-dasharray="4 3"/><rect x="495.6" y="269.21747054446996" width="160.0" height="102.4" rx="16.0" fill="none" stroke="#8DB9E9" stroke-width="2.5"/><path d="M574.1,309.1 A16.0,16.0 0 0 1 574.1,331.7" fill="none" stroke="#8DB9E9" stroke-width="2.5" stroke-linecap="round"/><path d="M583.2,300.1 A28.8,28.8 0 0 1 583.2,340.8" fill="none" stroke="#8DB9E9" stroke-width="2.5" stroke-linecap="round"/><path d="M592.2,291.0 A41.6,41.6 0 0 1 592.2,349.8" fill="none" stroke="#8DB9E9" stroke-width="2.5" stroke-linecap="round"/><text x="575.6" y="397.21747054446996" font-size="11" fill="#8B87A3" text-anchor="middle" font-family="ui-sans-serif, system-ui, -apple-system, 'Segoe UI', Roboto, sans-serif">rc522 under the lid</text><circle cx="575.6" cy="154.01747054446997" r="27.84" fill="none" stroke="#EE93A9" stroke-width="1.5" stroke-dasharray="4 3"/><circle cx="589.04" cy="154.01747054446997" r="3.5200000000000005" fill="#EE93A9"/><circle cx="582.32" cy="142.37808911760712" r="3.5200000000000005" fill="#EE93A9"/><circle cx="568.8800000000001" cy="142.37808911760712" r="3.5200000000000005" fill="#EE93A9"/><circle cx="562.1600000000001" cy="154.01747054446997" r="3.5200000000000005" fill="#EE93A9"/><circle cx="568.8800000000001" cy="165.6568519713328" r="3.5200000000000005" fill="#EE93A9"/><circle cx="582.32" cy="165.6568519713328" r="3.5200000000000005" fill="#EE93A9"/><circle cx="575.6" cy="154.01747054446997" r="3.5200000000000005" fill="#EE93A9"/><line x1="70.0" y1="531.61747054447" x2="678.0" y2="531.61747054447" stroke="#8B87A3" stroke-width="1.2"/><line x1="70.0" y1="526.61747054447" x2="70.0" y2="536.61747054447" stroke="#8B87A3" stroke-width="1.2"/><line x1="678.0" y1="526.61747054447" x2="678.0" y2="536.61747054447" stroke="#8B87A3" stroke-width="1.2"/><text x="374.0" y="547.61747054447" font-size="12" fill="#3E3A4F" text-anchor="middle" font-family="ui-sans-serif, system-ui, -apple-system, 'Segoe UI', Roboto, sans-serif">190</text><line x1="697.2" y1="512.41747054447" x2="697.2" y2="90.0" stroke="#8B87A3" stroke-width="1.2"/><line x1="692.2" y1="512.41747054447" x2="702.2" y2="512.41747054447" stroke="#8B87A3" stroke-width="1.2"/><line x1="692.2" y1="90.0" x2="702.2" y2="90.0" stroke="#8B87A3" stroke-width="1.2"/><text x="705.2" y="305.208735272235" font-size="12" fill="#3E3A4F" font-family="ui-sans-serif, system-ui, -apple-system, 'Segoe UI', Roboto, sans-serif">132 on the slope</text><line x1="204.4" y1="474.01747054447" x2="319.6" y2="474.01747054447" stroke="#8B87A3" stroke-width="1.2"/><line x1="204.4" y1="469.01747054447" x2="204.4" y2="479.01747054447" stroke="#8B87A3" stroke-width="1.2"/><line x1="319.6" y1="469.01747054447" x2="319.6" y2="479.01747054447" stroke="#8B87A3" stroke-width="1.2"/><text x="262.0" y="490.01747054447" font-size="12" fill="#3E3A4F" text-anchor="middle" font-family="ui-sans-serif, system-ui, -apple-system, 'Segoe UI', Roboto, sans-serif">36</text><line x1="319.6" y1="474.01747054447" x2="434.8" y2="474.01747054447" stroke="#8B87A3" stroke-width="1.2"/><line x1="319.6" y1="469.01747054447" x2="319.6" y2="479.01747054447" stroke="#8B87A3" stroke-width="1.2"/><line x1="434.8" y1="469.01747054447" x2="434.8" y2="479.01747054447" stroke="#8B87A3" stroke-width="1.2"/><text x="377.20000000000005" y="490.01747054447" font-size="12" fill="#3E3A4F" text-anchor="middle" font-family="ui-sans-serif, system-ui, -apple-system, 'Segoe UI', Roboto, sans-serif">36</text><line x1="50.8" y1="512.41747054447" x2="50.8" y2="403.61747054447" stroke="#8B87A3" stroke-width="1.2"/><line x1="45.8" y1="512.41747054447" x2="55.8" y2="512.41747054447" stroke="#8B87A3" stroke-width="1.2"/><line x1="45.8" y1="403.61747054447" x2="55.8" y2="403.61747054447" stroke="#8B87A3" stroke-width="1.2"/><text x="58.8" y="462.01747054447003" font-size="12" fill="#3E3A4F" font-family="ui-sans-serif, system-ui, -apple-system, 'Segoe UI', Roboto, sans-serif">34</text><line x1="50.8" y1="403.61747054447" x2="50.8" y2="314.01747054447" stroke="#8B87A3" stroke-width="1.2"/><line x1="45.8" y1="403.61747054447" x2="55.8" y2="403.61747054447" stroke="#8B87A3" stroke-width="1.2"/><line x1="45.8" y1="314.01747054447" x2="55.8" y2="314.01747054447" stroke="#8B87A3" stroke-width="1.2"/><text x="58.8" y="362.81747054447" font-size="12" fill="#3E3A4F" font-family="ui-sans-serif, system-ui, -apple-system, 'Segoe UI', Roboto, sans-serif">28</text><line x1="50.8" y1="314.01747054447" x2="50.8" y2="192.41747054446995" stroke="#8B87A3" stroke-width="1.2"/><line x1="45.8" y1="314.01747054447" x2="55.8" y2="314.01747054447" stroke="#8B87A3" stroke-width="1.2"/><line x1="45.8" y1="192.41747054446995" x2="55.8" y2="192.41747054446995" stroke="#8B87A3" stroke-width="1.2"/><text x="58.8" y="257.21747054446996" font-size="12" fill="#3E3A4F" font-family="ui-sans-serif, system-ui, -apple-system, 'Segoe UI', Roboto, sans-serif">38</text><line x1="203.6" y1="142.01747054446997" x2="435.6" y2="142.01747054446997" stroke="#8B87A3" stroke-width="1.2"/><line x1="203.6" y1="137.01747054446997" x2="203.6" y2="147.01747054446997" stroke="#8B87A3" stroke-width="1.2"/><line x1="435.6" y1="137.01747054446997" x2="435.6" y2="147.01747054446997" stroke="#8B87A3" stroke-width="1.2"/><text x="319.6" y="135.01747054446997" font-size="12" fill="#3E3A4F" text-anchor="middle" font-family="ui-sans-serif, system-ui, -apple-system, 'Segoe UI', Roboto, sans-serif">72.5 × 25.5</text><text x="70.0" y="44.0" font-size="22" font-weight="800" fill="#3E3A4F" font-family="ui-sans-serif, system-ui, -apple-system, 'Segoe UI', Roboto, sans-serif" letter-spacing="-0.5">top plate, seen from above</text><text x="70.0" y="64.0" font-size="12" fill="#8B87A3" font-family="ui-sans-serif, system-ui, -apple-system, 'Segoe UI', Roboto, sans-serif">all in mm, 130 deep when flat. dashed outlines sit under the lid, circles with a white ring are through holes.</text><polygon points="868.0,512.41747054447 1284.0,512.41747054447 1284.0,311.0654465697486 868.0,384.41747054447" fill="#CDEFE0" stroke="#8FCFB3" stroke-width="2" stroke-linejoin="round"/><line x1="868.0" y1="397.21747054447" x2="1284.0" y2="323.86544656974854" stroke="#AB9BE6" stroke-width="12.8" opacity=".8"/><rect x="1072.8" y="478.49747054447" width="170.56" height="5.120000000000001" fill="#6FBF9C"/><rect x="1098.4" y="443.29747054447" width="121.60000000000001" height="35.2" rx="3" fill="#6FBF9C" opacity=".55"/><rect x="1034.4" y="470.81747054447" width="176.0" height="28.8" fill="#F3E3BF"/><text x="868.0" y="265.0654465697486" font-size="22" font-weight="800" fill="#3E3A4F" font-family="ui-sans-serif, system-ui, -apple-system, 'Segoe UI', Roboto, sans-serif" letter-spacing="-0.5">side profile</text><text x="868.0" y="285.0654465697486" font-size="12" fill="#8B87A3" font-family="ui-sans-serif, system-ui, -apple-system, 'Segoe UI', Roboto, sans-serif">front on the left. lid in lavender, uno and breadboard inside.</text><line x1="860.0" y1="512.41747054447" x2="860.0" y2="384.41747054447" stroke="#8B87A3" stroke-width="1.2"/><text x="854.0" y="452.41747054447" font-size="12" fill="#3E3A4F" text-anchor="end" font-family="ui-sans-serif, system-ui, -apple-system, 'Segoe UI', Roboto, sans-serif">40</text><line x1="1292.0" y1="512.41747054447" x2="1292.0" y2="311.0654465697486" stroke="#8B87A3" stroke-width="1.2"/><text x="1298.0" y="415.7414585571093" font-size="12" fill="#3E3A4F" text-anchor="start" font-family="ui-sans-serif, system-ui, -apple-system, 'Segoe UI', Roboto, sans-serif">62.9</text><text x="1076.0" y="530.41747054447" font-size="12" fill="#3E3A4F" text-anchor="middle" font-family="ui-sans-serif, system-ui, -apple-system, 'Segoe UI', Roboto, sans-serif">130, top tilted 10°</text></svg>
